<?xml version="1.0" encoding="UTF-8"?>
<svg width="34px" height="34px" viewBox="0 0 34 34" version="1.1" xmlns="http://www.w3.org/2000/svg" xmlns:xlink="http://www.w3.org/1999/xlink">
    <!-- Generator: Sketch 46.2 (44496) - http://www.bohemiancoding.com/sketch -->
    <title>itunes-fd869dac2d6753810165ea4f7af3840b</title>
    <desc>Created with Sketch.</desc>
    <defs>
        <linearGradient x1="49.9703492%" y1="0.0573244679%" x2="49.9703492%" y2="100.001484%" id="linearGradient-1">
            <stop stop-color="#F452FF" offset="0%"></stop>
            <stop stop-color="#832BC1" offset="100%"></stop>
        </linearGradient>
        <path d="M34.32,30.47 C33.8483091,31.5876375 33.1018754,32.5679766 32.15,33.32 C31.4395831,33.8817846 30.6283732,34.3026634 29.76,34.56 C28.4168506,34.8948338 27.0333677,35.0395778 25.65,34.99 L10.35,34.99 C8.96663231,35.0395778 7.58314944,34.8948338 6.24,34.56 C4.18040597,33.9451257 2.50391754,32.4410551 1.67,30.46 C1.15424207,28.9111671 0.92714626,27.2808225 1,25.65 L1,25.65 L1,10.36 L1,10.36 C0.925228675,8.7258116 1.15235745,7.09184041 1.67,5.54 C2.50391754,3.55894486 4.18040597,2.05487427 6.24,1.44 C7.58267303,1.10180019 8.96616284,0.953689358 10.35,1 L25.65,1 C27.0333677,0.950422237 28.4168506,1.09516619 29.76,1.43 C31.819594,2.04487427 33.4960825,3.54894486 34.33,5.53 C34.8481921,7.08516062 35.0753192,8.72250966 35,10.36 L35,25.66 C35.0703189,27.291472 34.8398138,28.9219563 34.32,30.47 Z" id="path-2"></path>
    </defs>
    <g id="Page-1" stroke="none" stroke-width="1" fill="none" fill-rule="evenodd">
        <g id="Desktop-HD-Copy-9" transform="translate(-55.000000, -521.000000)">
            <g id="Group-8" transform="translate(53.000000, 477.000000)">
                <g id="Group-4" transform="translate(0.000000, 43.000000)">
                    <g id="itunes-fd869dac2d6753810165ea4f7af3840b" transform="translate(1.000000, 0.000000)">
                        <g id="_Tracé_" fill-rule="nonzero">
                            <use fill="url(#linearGradient-1)" fill-rule="evenodd" xlink:href="#path-2"></use>
                            <use fill-opacity="0" fill="#D8D8D8" fill-rule="evenodd" xlink:href="#path-2"></use>
                        </g>
                        <path d="M34.32,30.47 C33.8483091,31.5876375 33.1018754,32.5679766 32.15,33.32 C31.4395831,33.8817846 30.6283732,34.3026634 29.76,34.56 C28.4168506,34.8948338 27.0333677,35.0395778 25.65,34.99 L10.35,34.99 C8.96663231,35.0395778 7.58314944,34.8948338 6.24,34.56 C4.18040597,33.9451257 2.50391754,32.4410551 1.67,30.46 C1.15424207,28.9111671 0.92714626,27.2808225 1,25.65 L1,25.65 L1,10.36 L1,10.36 C0.925228675,8.7258116 1.15235745,7.09184041 1.67,5.54 C2.50391754,3.55894486 4.18040597,2.05487427 6.24,1.44 C7.58267303,1.10180019 8.96616284,0.953689358 10.35,1 L25.65,1 C27.0333677,0.950422237 28.4168506,1.09516619 29.76,1.43 C31.819594,2.04487427 33.4960825,3.54894486 34.33,5.53 C34.8481921,7.08516062 35.0753192,8.72250966 35,10.36 L35,25.66 C35.0703189,27.291472 34.8398138,28.9219563 34.32,30.47 Z" id="_Tracé_2"></path>
                        <g id="_Groupe_3" transform="translate(6.000000, 4.000000)" fill-rule="nonzero" fill="#FFFFFF">
                            <path d="M14.46,16.55 C13.7909321,15.9380832 12.9057124,15.6178208 12,15.66 C11.0955251,15.6139964 10.2100729,15.9307435 9.54,16.54 C9.27392566,16.8078918 9.1140402,17.1631928 9.09,17.54 C9.01970578,18.396153 9.03645823,19.257229 9.14,20.11 C9.23,21.11 9.4,22.54 9.62,23.96 C9.70965299,24.6149093 9.84328839,25.263041 10.02,25.9 C10.3463083,26.6975977 11.1640652,27.1800743 12.02,27.08 C12.8759348,27.1800743 13.6936917,26.6975977 14.02,25.9 C14.1970376,25.2631197 14.3306776,24.6149658 14.42,23.96 C14.64,22.55 14.81,21.16 14.9,20.11 C15.006057,19.2575074 15.026158,18.3965132 14.96,17.54 C14.9202291,17.1598941 14.7423088,16.807612 14.46,16.55 Z M9.22,11.76 C9.21189771,12.8861896 9.88406173,13.9060006 10.9222088,14.3426005 C11.9603558,14.7792004 13.1593489,14.5463174 13.9585755,13.7528406 C14.7578022,12.9593638 14.999336,11.7620834 14.570243,10.7208111 C14.14115,9.67953881 13.1262188,9.00002915 12,9 C10.4724251,8.99996047 9.23098975,10.2324646 9.22,11.76 L9.22,11.76 Z M12,0.78 C6.25372684,0.899240273 1.39886662,5.07615691 0.42314175,10.7402398 C-0.552583115,16.4043226 2.62484093,21.964923 8,24 C8.05191101,24.0174791 8.10915581,24.0071885 8.15172921,23.9727243 C8.1943026,23.9382601 8.21628716,23.8844127 8.21,23.83 C8.15,23.42 8.09,23.01 8.04,22.61 C8.02098863,22.4688973 7.93013541,22.3477597 7.8,22.29 C3.27450343,20.3194219 0.752473221,15.4440142 1.7589056,10.61179 C2.76533797,5.77956575 7.02408093,2.31642475 11.96,2.31642475 C16.8959191,2.31642475 21.154662,5.77956575 22.1610944,10.61179 C23.1675268,15.4440142 20.6454966,20.3194219 16.12,22.29 C15.9898646,22.3477597 15.8990114,22.4688973 15.88,22.61 C15.83,23.01 15.77,23.43 15.71,23.83 C15.6630558,23.9100813 15.6899187,24.0130558 15.77,24.06 C15.8500813,24.1069442 15.9530558,24.0800813 16,24 C21.3751591,21.964923 24.5525831,16.4043226 23.5768583,10.7402398 C22.6011334,5.07615691 17.7462732,0.899240273 12,0.78 Z M11.78,6.26 C14.4835197,6.14672676 16.9719825,7.72781395 18.0179336,10.2233773 C19.0638846,12.7189406 18.4463764,15.6018154 16.47,17.45 C16.3617941,17.5500653 16.3032476,17.6927724 16.31,17.84 C16.3361905,18.2929551 16.3361905,18.7470449 16.31,19.2 C16.3070229,19.2606574 16.3386435,19.3177714 16.3916311,19.3474445 C16.4446187,19.3771176 16.509838,19.3742339 16.56,19.34 C19.463245,17.3648178 20.7391002,13.7273179 19.7057513,10.371373 C18.6724024,7.01542813 15.5714351,4.72562172 12.06,4.72562172 C8.54856494,4.72562172 5.44759761,7.01542813 4.41424869,10.371373 C3.38089977,13.7273179 4.65675503,17.3648178 7.56,19.34 C7.60972678,19.3687129 7.67102672,19.3685771 7.72062584,19.3396443 C7.77022496,19.3107115 7.80051667,19.2574188 7.8,19.2 C7.77196855,18.7437635 7.77196855,18.2862365 7.8,17.83 C7.80816928,17.6825301 7.74938469,17.5392426 7.64,17.44 C5.7467391,15.6632123 5.09902468,12.9267356 5.9949045,10.4897681 C6.89078433,8.0528006 9.15670652,6.3874372 11.75,6.26 L11.78,6.26 Z" id="Shape"></path>
                        </g>
                    </g>
                </g>
            </g>
        </g>
    </g>
</svg>
