<?xml version="1.0" encoding="UTF-8"?>
<svg width="34px" height="34px" viewBox="0 0 34 34" version="1.1" xmlns="http://www.w3.org/2000/svg" xmlns:xlink="http://www.w3.org/1999/xlink">
    <!-- Generator: Sketch 46.2 (44496) - http://www.bohemiancoding.com/sketch -->
    <title>overcast-04db1864caeaaaad2e3ec0bf0e1110ee</title>
    <desc>Created with Sketch.</desc>
    <defs>
        <linearGradient x1="49.9994174%" y1="0.0573244679%" x2="49.9994174%" y2="99.9720795%" id="linearGradient-1">
            <stop stop-color="#FF9402" offset="0%"></stop>
            <stop stop-color="#FF613C" offset="100%"></stop>
        </linearGradient>
    </defs>
    <g id="Page-1" stroke="none" stroke-width="1" fill="none" fill-rule="evenodd">
        <g id="Desktop-HD-Copy-9" transform="translate(-54.000000, -572.000000)" fill-rule="nonzero">
            <g id="Group-8" transform="translate(53.000000, 477.000000)">
                <g id="Group-4" transform="translate(0.000000, 43.000000)">
                    <g id="overcast-04db1864caeaaaad2e3ec0bf0e1110ee" transform="translate(0.000000, 51.000000)">
                        <path d="M34.32,30.47 C33.8483091,31.5876375 33.1018754,32.5679766 32.15,33.32 C31.4395831,33.8817846 30.6283732,34.3026634 29.76,34.56 C28.4168506,34.8948338 27.0333677,35.0395778 25.65,34.99 L10.35,34.99 C8.96663231,35.0395778 7.58314944,34.8948338 6.24,34.56 C4.18040597,33.9451257 2.50391754,32.4410551 1.67,30.46 C1.15424207,28.9111671 0.92714626,27.2808225 1,25.65 L1,25.65 L1,10.35 L1,10.35 C0.928446703,8.71519287 1.15896769,7.08120584 1.68,5.53 C2.51633092,3.55276693 4.19245146,2.05269407 6.25,1.44 C7.58943875,1.10273035 8.96949711,0.954626527 10.35,1 L25.65,1 C27.0333677,0.950422237 28.4168506,1.09516619 29.76,1.43 C31.819594,2.04487427 33.4960825,3.54894486 34.33,5.53 C34.8469737,7.08199697 35.0740851,8.7158434 35,10.35 L35,25.65 C35.0715533,27.2848071 34.8410323,28.9187942 34.32,30.47 L34.32,30.47 Z" id="_Tracé_" fill="url(#linearGradient-1)"></path>
                        <path d="M17.9999984,30.2499872 C11.2345164,30.2499872 5.75000957,24.7654804 5.75000957,17.9999984 C5.75000957,11.2345164 11.2345164,5.75000957 17.9999984,5.75000957 C24.7654804,5.75000957 30.2499872,11.2345164 30.2499872,17.9999984 C30.256197,21.2507971 28.9675711,24.370239 26.6689051,26.6689051 C24.370239,28.9675711 21.2507971,30.256197 17.9999984,30.2499872 Z M17.9999984,25.3966583 L18.9216642,24.4749925 L17.9999984,20.9749957 L17.0783326,24.4749925 L17.9999984,25.3966583 Z M16.8333328,25.3966583 L16.3783332,27.1349901 L17.4516656,26.0616577 L16.8333328,25.3966583 Z M19.166664,25.3966583 L18.5483312,26.0149911 L19.6216636,27.0883235 L19.166664,25.3966583 Z M20.0416632,28.4999888 L17.9999984,26.4699907 L15.9583336,28.4999888 C16.6323838,28.6230327 17.3150143,28.6932462 17.9999984,28.7099886 C18.6863552,28.7185266 19.3714152,28.6480633 20.0416632,28.4999888 L20.0416632,28.4999888 Z M17.9999984,7.27834151 C12.7776266,7.28810056 8.32372291,11.0630601 7.45815142,16.2132104 C6.59257994,21.3633608 9.56774382,26.386903 14.5000016,28.1033225 L16.8333328,19.574997 C16.3117502,19.1957089 16.0071478,18.5865041 16.0166669,17.9416651 C16.0166669,16.9815509 16.6856333,16.1511586 17.6237444,15.9467894 C18.5618555,15.7424202 19.5156133,16.2192991 19.9149846,17.0924095 C20.3143559,17.96552 20.0514219,18.9989284 19.2833306,19.574997 L21.6166618,28.1033225 C26.5704135,26.3800995 29.5473735,21.3228831 28.649925,16.1553169 C27.7524765,10.9877508 23.2446963,7.2304052 17.9999984,7.27834151 Z M24.999992,23.3083269 C24.7379193,23.6335395 24.2685804,23.6998591 23.9266597,23.4599934 C23.7591813,23.3525935 23.6463656,23.1779809 23.6172899,22.9811603 C23.5882141,22.7843396 23.6457226,22.5845655 23.7749931,22.4333277 C25.6121231,19.7589943 25.6121231,16.2293358 23.7749931,13.5550025 C23.6457226,13.4037646 23.5882141,13.2039905 23.6172899,13.0071699 C23.6463656,12.8103492 23.7591813,12.6357367 23.9266597,12.5283367 C24.2685804,12.2884711 24.7379193,12.3547907 24.999992,12.6800033 C27.246371,15.8624053 27.246371,20.1142582 24.999992,23.2966602 L24.999992,23.3083269 Z M21.2666621,21.3133287 C20.9641492,20.9832707 20.9641492,20.4767211 21.2666621,20.1466631 C21.7843392,19.5502974 22.073716,18.7896498 22.083328,17.9999984 C22.0735245,17.2185449 21.8024614,16.4628539 21.3133287,15.8533337 C21.0358756,15.5139325 21.0358756,15.0260693 21.3133287,14.6866681 C21.4463297,14.5278516 21.6428429,14.4361001 21.8499949,14.4361001 C22.0571468,14.4361001 22.2536601,14.5278516 22.3866611,14.6866681 C24.090642,16.6115078 24.090642,19.5051556 22.3866611,21.4299953 C22.2287541,21.5772267 22.0148481,21.6489012 21.8001125,21.6265329 C21.585377,21.6041646 21.3908351,21.4899435 21.2666621,21.3133287 Z M14.7333347,21.3133287 C14.5926625,21.4587519 14.3989965,21.5408613 14.1966685,21.5408613 C13.9943406,21.5408613 13.8006746,21.4587519 13.6600024,21.3133287 C11.9560214,19.388489 11.9560214,16.4948412 13.6600024,14.5700015 C13.7930033,14.411185 13.9895166,14.3194335 14.1966685,14.3194335 C14.4038205,14.3194335 14.6003338,14.411185 14.7333347,14.5700015 C15.0358476,14.9000596 15.0358476,15.4066091 14.7333347,15.7366671 C14.2021871,16.3708894 13.9128563,17.1727493 13.9166688,17.9999984 C13.9132404,18.7837811 14.1858398,19.5437551 14.6866681,20.1466631 C15.0027065,20.4644797 15.0229787,20.9712848 14.7333347,21.3133287 L14.7333347,21.3133287 Z M12.0733371,23.4599934 C11.7314164,23.6998591 11.2620775,23.6335395 11.0000048,23.3083269 C8.75362582,20.1259248 8.75362582,15.874072 11.0000048,12.6916699 C11.2620775,12.3664573 11.7314164,12.3001377 12.0733371,12.5400034 C12.2408155,12.6474033 12.3536312,12.8220159 12.3827069,13.0188365 C12.4117827,13.2156572 12.3542742,13.4154313 12.2250037,13.5666691 C10.3878737,16.2410025 10.3878737,19.770661 12.2250037,22.4449944 C12.4581197,22.7684608 12.3908274,23.2188015 12.0733371,23.4599934 L12.0733371,23.4599934 Z" id="overcastCanvas-group" fill="#FFFFFF"></path>
                    </g>
                </g>
            </g>
        </g>
    </g>
</svg>
