<?xml version="1.0" encoding="UTF-8"?>
<svg width="34px" height="34px" viewBox="0 0 34 34" version="1.1" xmlns="http://www.w3.org/2000/svg" xmlns:xlink="http://www.w3.org/1999/xlink">
    <!-- Generator: Sketch 46.2 (44496) - http://www.bohemiancoding.com/sketch -->
    <title>pocketcasts-c1c4f3aa23e1e2478eb2304d9569f98f</title>
    <desc>Created with Sketch.</desc>
    <defs>
        <linearGradient x1="49.9994174%" y1="0.0573244679%" x2="49.9994174%" y2="99.9720795%" id="linearGradient-1">
            <stop stop-color="#F0564C" offset="0%"></stop>
            <stop stop-color="#E14E50" offset="100%"></stop>
        </linearGradient>
    </defs>
    <g id="Page-1" stroke="none" stroke-width="1" fill="none" fill-rule="evenodd">
        <g id="Desktop-HD-Copy-9" transform="translate(-54.000000, -622.000000)" fill-rule="nonzero">
            <g id="Group-8" transform="translate(53.000000, 477.000000)">
                <g id="Group-4" transform="translate(0.000000, 43.000000)">
                    <g id="pocketcasts-c1c4f3aa23e1e2478eb2304d9569f98f" transform="translate(0.000000, 101.000000)">
                        <path d="M34.32,30.47 C33.8483091,31.5876375 33.1018754,32.5679766 32.15,33.32 C31.4395831,33.8817846 30.6283732,34.3026634 29.76,34.56 C28.4168506,34.8948338 27.0333677,35.0395778 25.65,34.99 L10.35,34.99 C8.96663231,35.0395778 7.58314944,34.8948338 6.24,34.56 C4.18040597,33.9451257 2.50391754,32.4410551 1.67,30.46 C1.15424207,28.9111671 0.92714626,27.2808225 1,25.65 L1,25.65 L1,10.35 L1,10.35 C0.928446703,8.71519287 1.15896769,7.08120584 1.68,5.53 C2.51633092,3.55276693 4.19245146,2.05269407 6.25,1.44 C7.58943875,1.10273035 8.96949711,0.954626527 10.35,1 L25.65,1 C27.0333677,0.950422237 28.4168506,1.09516619 29.76,1.43 C31.819594,2.04487427 33.4960825,3.54894486 34.33,5.53 C34.8469737,7.08199697 35.0740851,8.7158434 35,10.35 L35,25.65 C35.0715533,27.2848071 34.8410323,28.9187942 34.32,30.47 L34.32,30.47 Z" id="_Tracé_" fill="url(#linearGradient-1)"></path>
                        <path d="M18,25.76 L18,25.76 C13.7142703,25.76 10.24,22.2857297 10.24,18 C10.24,13.7142703 13.7142703,10.24 18,10.24 C22.2857297,10.24 25.76,13.7142703 25.76,18 L25.76,18 L28.5,18 L28.5,18 C28.5,12.2010101 23.7989899,7.5 18,7.5 C12.2010101,7.5 7.5,12.2010101 7.5,18 C7.5,23.7989899 12.2010101,28.5 18,28.5 L18,28.5 L18,25.76 Z" id="Shape" fill="#FFFFFF"></path>
                        <path d="M18,11.61 C14.468139,11.61 11.605,14.473139 11.605,18.005 C11.605,21.536861 14.468139,24.4 18,24.4 L18,24.4 L18,22.11 L18,22.11 C15.7301097,22.11 13.89,20.2698903 13.89,18 C13.89,15.7301097 15.7301097,13.89 18,13.89 C20.2698903,13.89 22.11,15.7301097 22.11,18 L22.11,18 L24.39,18 L24.39,18 C24.39,14.4709004 21.5290996,11.61 18,11.61 Z" id="Shape" fill="#FFFFFF"></path>
                    </g>
                </g>
            </g>
        </g>
    </g>
</svg>
