<svg width="34" height="34" viewBox="0 0 34 34" fill="none" xmlns="http://www.w3.org/2000/svg">
<g clip-path="url(#clip0)">
<path d="M33.32 29.46C32.8483 30.5776 32.1019 31.558 31.15 32.31C30.4396 32.8718 29.6284 33.2926 28.76 33.55C27.4168 33.8848 26.0334 34.0296 24.65 33.98H9.34999C7.96662 34.0296 6.58314 33.8848 5.23999 33.55C3.18039 32.9351 1.5039 31.431 0.669986 29.45C0.154228 27.9011 -0.0728677 26.2708 -1.39764e-05 24.64V9.34997C-0.0715673 7.71517 0.158954 6.08118 0.679986 4.52997C1.5139 2.54892 3.19039 1.04485 5.24999 0.429974C6.5899 0.0960703 7.96995 -0.0486667 9.34999 -2.601e-05H24.65C26.0334 -0.0496038 27.4168 0.0951401 28.76 0.429974C30.8196 1.04485 32.4961 2.54892 33.33 4.52997C33.847 6.08197 34.0741 7.71582 34 9.34997V24.65C34.0703 26.2814 33.8398 27.9119 33.32 29.46Z" fill="url(#paint0_linear)"/>
<path d="M33.32 29.46C32.8483 30.5776 32.1019 31.558 31.15 32.31C30.4396 32.8718 29.6284 33.2926 28.76 33.55C27.4168 33.8848 26.0334 34.0296 24.65 33.98H9.34999C7.96662 34.0296 6.58314 33.8848 5.23999 33.55C3.18039 32.9351 1.5039 31.431 0.669986 29.45C0.154228 27.9011 -0.0728677 26.2708 -1.39764e-05 24.64V9.34997C-0.0715673 7.71517 0.158954 6.08118 0.679986 4.52997C1.5139 2.54892 3.19039 1.04485 5.24999 0.429974C6.5899 0.0960703 7.96995 -0.0486667 9.34999 -2.601e-05H24.65C26.0334 -0.0496038 27.4168 0.0951401 28.76 0.429974C30.8196 1.04485 32.4961 2.54892 33.33 4.52997C33.847 6.08197 34.0741 7.71582 34 9.34997V24.65C34.0703 26.2814 33.8398 27.9119 33.32 29.46Z" fill="url(#paint1_linear)"/>
<path d="M9.43 21.81C7.91806 21.8155 6.69633 23.0447 6.70001 24.5566C6.70369 26.0686 7.93137 27.2918 9.44332 27.29C10.9553 27.2881 12.18 26.0619 12.18 24.55C12.1745 23.0351 10.9449 21.81 9.43 21.81ZM6.69 13.69V17.69C9.25199 17.6926 11.708 18.7129 13.5177 20.5264C15.3275 22.3399 16.3427 24.798 16.34 27.36H20.34C20.348 23.7355 18.9131 20.2569 16.352 17.6921C13.791 15.1273 10.3145 13.6873 6.69 13.69ZM6.69 6.68999V10.69C15.8687 10.7064 23.3115 18.1314 23.35 27.31H27.35C27.3335 15.9115 18.0885 6.67998 6.69 6.67999V6.68999Z" fill="white"/>
</g>
<defs>
<linearGradient id="paint0_linear" x1="17.0002" y1="-0.00952148" x2="17.0002" y2="33.9895" gradientUnits="userSpaceOnUse">
<stop stop-color="#FB9D3B"/>
<stop offset="0.969527" stop-color="#EB8033"/>
</linearGradient>
<linearGradient id="paint1_linear" x1="17.0002" y1="-0.00952148" x2="17.0002" y2="33.9895" gradientUnits="userSpaceOnUse">
<stop stop-color="#FB9D3B"/>
<stop offset="0.969527" stop-color="#EB8033"/>
</linearGradient>
<clipPath id="clip0">
<rect width="34" height="34" fill="white"/>
</clipPath>
</defs>
</svg>
